<svg id="Layer_1" data-name="Layer 1" xmlns="http://www.w3.org/2000/svg" viewBox="0 0 236.11 41.55"><defs><style>.cls-1{font-size:38.66px;fill:#fff;font-family:Nunito, Nunito;letter-spacing:0.08em;}.cls-2{letter-spacing:0.04em;}.cls-3{letter-spacing:0.08em;}.cls-4{fill:#db4437;}.cls-5{fill:#4285f4;}.cls-6{fill:#1f1f38;}.cls-7{fill:#0f9d58;}</style></defs><text class="cls-1" transform="translate(0 33.4)">J<tspan class="cls-2" x="25.29" y="0">O</tspan><tspan class="cls-3" x="57.57" y="0">ASH</tspan></text><path class="cls-4" d="M164.23,47.33l29.84-15a2.22,2.22,0,0,0,.85-2.9h0a2,2,0,0,0-2.63-1.15l-29.84,15a2.23,2.23,0,0,0-.84,2.9h0A2,2,0,0,0,164.23,47.33Z" transform="translate(-1.94 -24.22)"/><path class="cls-5" d="M161.57,47.4,192.2,60.65a2.2,2.2,0,0,0,2.75-1.2h0a1.94,1.94,0,0,0-.81-2.73L163.51,43.46a2.21,2.21,0,0,0-2.75,1.2h0A2,2,0,0,0,161.57,47.4Z" transform="translate(-1.94 -24.22)"/><path class="cls-6" d="M234.21,42.4l-29.82,15a2.3,2.3,0,0,0-.79,3h0a2,2,0,0,0,2.68,1.27l29.81-15a2.29,2.29,0,0,0,.79-3h0A2,2,0,0,0,234.21,42.4Z" transform="translate(-1.94 -24.22)"/><path class="cls-7" d="M237,42.61,206.37,29.37a2.23,2.23,0,0,0-2.77,1.22h0a2,2,0,0,0,.8,2.76L235,46.6a2.23,2.23,0,0,0,2.76-1.23h0A2,2,0,0,0,237,42.61Z" transform="translate(-1.94 -24.22)"/></svg>